<svg width="683" height="683" viewBox="0 0 683 683" fill="none" xmlns="http://www.w3.org/2000/svg">
<path d="M25.7333 115.2C13.2 119.2 4.26665 128.267 1.33331 140.133C0.39998 144.267 -1.97905e-05 205.2 0.266647 344.667L0.666647 543.333L4.66665 550.533C6.93331 554.533 11.0666 559.467 13.8666 561.6C25.3333 569.867 3.06663 569.333 341.333 569.333C679.6 569.333 657.333 569.867 668.8 561.6C671.6 559.467 675.867 554.533 678 550.533L682 543.333V341.333V139.333L678 132.133C675.867 128.133 671.6 123.2 668.8 121.067C657.333 112.8 679.733 113.333 340.8 113.467C90.1333 113.467 30.2666 113.867 25.7333 115.2ZM632 141.867C630.933 142.8 568.667 189.6 493.733 245.733C402.4 314.267 355.867 348.267 352.4 349.2C345.867 351.067 336.8 351.067 330.267 349.2C326.8 348.267 280.267 314.267 188.933 245.733C114 189.6 51.7333 142.8 50.6666 141.867C49.0666 140.267 92.5333 140 341.333 140C590.133 140 633.6 140.267 632 141.867ZM170.667 264.667C248 322.667 313.867 371.2 317.067 372.4C320.267 373.733 326.933 375.467 332 376.267C343.2 378.133 356.933 376.267 367.333 371.467C370.933 369.733 437.333 320.8 514.667 262.8L655.333 157.2L655.733 248.533C655.867 298.8 655.867 381.067 655.733 431.2L655.333 522.533L581.333 431.2C540.667 380.933 506.4 339.2 505.2 338.533C501.6 336.667 494.933 337.067 491.333 339.467C487.6 342 485.067 348.4 486.133 352.933C486.667 354.8 520.8 398.133 562.133 449.2L637.333 542L489.333 542.4C407.867 542.533 274.8 542.533 193.333 542.4L45.3333 542L120.533 449.2C161.867 398.133 196 354.8 196.533 352.933C197.6 348.4 195.067 342 191.333 339.467C188 337.333 181.867 336.667 178 338.133C176.933 338.667 142.8 379.867 102.4 429.867C62 479.733 28.4 521.2 27.8666 521.867C27.2 522.667 26.6666 444 26.6666 340.133C26.6666 194.133 27.0666 157.333 28.4 158.133C29.2 158.8 93.3333 206.667 170.667 264.667Z" fill="white"/>
</svg>
