<svg width="683" height="683" viewBox="0 0 683 683" fill="none" xmlns="http://www.w3.org/2000/svg">
<path d="M320.266 36C294.8 40.6667 268.4 56.1333 252 76.2667C244.133 86 234.266 105.067 231.2 116.667C228.266 127.733 227.333 150.667 229.2 162.133C230.133 167.2 232.8 176.267 235.066 182.133C239.333 192.4 328.266 343.067 333.733 348.933C335.6 351.067 338 352 341.333 352C344.666 352 347.066 351.067 348.933 348.933C354.4 343.067 443.333 192.4 447.6 182.133C453.333 167.867 455.2 155.867 454.266 138.667C453.333 121.2 450.933 112 443.466 96.6667C436.533 82.6667 426.266 69.7333 414.4 60C404.933 52.2667 383.333 41.2 371.333 38C361.733 35.4667 330.533 34.2667 320.266 36ZM372.533 62C398 70.9333 419.466 92.4 428.133 117.333C434.133 134.933 432.8 162.4 425.2 177.733C421.2 185.867 342.133 318.533 341.333 318.533C340.533 318.533 261.466 185.867 257.466 177.733C249.866 162.4 248.533 134.933 254.533 117.333C264.266 89.0667 287.6 68.1333 319.333 59.2C324 57.8667 331.333 57.4667 344 57.8667C359.466 58.2667 363.466 58.8 372.533 62Z" fill="white"/>
<path d="M332 92.1333C301.867 97.2 281.467 125.467 285.6 156.267C287.867 173.867 300.4 190.8 317.2 199.067C325.467 203.067 326.667 203.333 341.333 203.333C356 203.333 357.2 203.067 365.467 199.067C387.867 188 400.533 164.4 397.067 139.867C392.933 108.933 362.933 86.9333 332 92.1333ZM357.067 117.867C368.533 123.6 375.2 134.8 375.2 148C375.2 161.333 369.067 171.467 357.2 178C334.667 190.267 307.467 173.867 307.467 148C307.6 121.867 333.6 106 357.067 117.867Z" fill="white"/>
<path d="M168.666 196.4C150 205.2 40.2662 263.333 37.7328 265.867C34.7995 268.533 34.1328 275.333 17.3328 453.333C-0.933822 648.267 -0.667156 643.467 5.46618 646.667C6.79951 647.467 9.33285 648 11.3328 648C13.1995 648 46.1328 632.933 84.3995 614.533C147.733 584.133 154.4 581.2 158 582.4C160.266 583.067 201.733 598.133 250.266 615.867C298.666 633.467 339.733 648 341.466 648C343.066 648 384.933 633.2 434.533 615.2C484.133 597.067 525.6 582 526.8 581.733C528 581.333 560.266 596.133 598.533 614.533C636.8 632.933 669.6 648 671.466 648C673.333 648 675.866 647.467 677.2 646.667C683.333 643.467 683.6 648.267 665.333 453.333C648.533 275.467 647.866 268.533 644.933 265.733C642 262.933 520.533 198.933 510.8 195.067C505.733 193.067 505.6 193.2 482.133 202.667C467.6 208.667 457.866 213.467 456.666 215.2C453.866 219.067 454.133 224.4 457.333 228.4C461.866 234.133 465.333 234 480.933 227.467C488.933 224.267 495.466 221.733 495.733 222C496.266 222.533 517.466 560.4 516.933 560.933C515.866 562 355.733 620 353.866 620C352.266 620 352 602.933 352 500V379.867L348.666 376.667C344.4 372.267 338.266 372.267 334 376.667L330.666 379.867V500C330.666 597.067 330.4 620 328.933 620C327.2 620 166.666 561.867 165.733 560.933C165.2 560.267 186.266 222.533 186.933 222C187.2 221.733 193.866 224.133 201.733 227.467C217.466 233.867 220.933 234 225.333 228.4C228.666 224.133 228.8 218.533 225.733 214.8C223.6 212.4 186.266 195.867 178.533 194C176.533 193.6 172.666 194.533 168.666 196.4ZM153.333 392.533C147.6 484.8 142.4 560.8 141.733 561.467C140 563.2 26.5328 617.467 25.4662 617.067C24.5328 616.667 55.4662 281.333 56.5328 280.4C57.4662 279.467 163.333 224.267 163.6 224.533C163.733 224.667 159.2 300.267 153.333 392.533ZM587.733 260C614.133 273.733 626.666 281.067 626.8 282.533C626.8 283.733 633.866 359.333 642.533 450.667C651.066 542 657.733 616.8 657.333 617.067C656.266 617.467 542.666 563.067 540.933 561.467C540.133 560.667 526 346.267 518.666 224.267C518.666 224 525.466 227.333 533.733 231.733C541.866 236 566.266 248.8 587.733 260Z" fill="white"/>
</svg>
