<svg width="683" height="683" viewBox="0 0 683 683" fill="none" xmlns="http://www.w3.org/2000/svg">
<path d="M144 44.8C126.533 48.5333 120.133 52.9333 95.2 77.8667C77.8666 95.2 70.8 103.333 65.6 111.867C38 157.067 35.4666 210 58.6666 256.667C66 271.2 89.5999 305.733 115.467 339.333C190.533 437.333 282.4 525.467 383.2 596.667C421.333 623.467 434.933 630.4 460.533 636.267C476.8 640 505.2 640.267 521.333 636.8C555.2 629.6 576.8 616.8 607.333 586.133C628.133 565.333 632.933 557.867 637.333 540.533C642 522.667 640 506 631.2 488.933C626.8 480.533 621.867 474.933 592.133 445.2C562.533 415.733 556.667 410.533 548.533 406.267C518.8 390.933 484.667 395.867 460.8 419.067C448.267 431.333 438.133 434.667 427.467 430.133C416.933 425.733 380.933 399.6 358 379.867C342.133 366.133 311.733 335.6 299.333 320.8C281.067 299.067 256.4 264.667 252.533 255.2C248 244.4 250.933 235.733 263.733 222C279.467 205.2 286.133 187.333 284.933 165.333C283.6 139.333 277.467 129.733 235.067 88C208 61.2 201.867 55.8667 193.733 51.6C177.6 43.2 161.467 40.9333 144 44.8ZM172.667 66C177.067 67.2 183.333 69.8667 186.667 72C190 74.1333 207.2 90.4 224.8 108.267C262.667 146.533 263.2 147.333 263.333 170C263.333 181.733 262.933 184.267 259.733 190.933C257.6 195.467 252.267 202.8 246.667 208.667C235.2 220.8 230.533 230.133 229.6 242.667C228.667 256.267 231.6 263.867 245.333 284.4C286.8 346.267 340.4 399.333 401.733 439.867C418.8 451.067 427.2 454 440 453.067C452.4 452.133 462.533 447.2 473.467 436.533C479.333 431.067 485.733 426.4 491.6 423.6C500 419.733 501.733 419.333 514 419.333C535.2 419.333 536.933 420.4 575.067 458.4C592.533 475.733 608.533 492.667 610.667 496C616.133 504.667 619.067 515.867 618.4 526.533C617.6 540.933 612 550.533 593.467 569.6C585.067 578.4 574.133 588.533 569.333 592.133C536.267 617.067 493.067 624.667 454.533 612.533C439.067 607.733 430.267 603.067 408.667 588.267C349.2 547.733 292.4 500.4 237.867 446C187.467 395.6 148.933 350.4 109.867 296C80.8 255.6 73.0666 241.6 67.7333 220.533C63.6 203.733 63.6 177.6 67.7333 160.8C71.2 147.067 78.5333 130.667 86.8 118.533C93.2 108.8 123.067 78.5333 131.733 72.6667C144.267 64.4 157.733 62.1333 172.667 66Z" fill="white"/>
<path d="M338 55.3333C334 59.2 333.6 65.0667 337.2 69.4667C339.467 72.2667 340.933 72.6667 358.8 73.4667C407.6 75.8667 450.134 90 490.934 117.467C559.734 163.733 605.734 242.267 608.8 318.667C609.2 328.533 609.734 338 610.134 339.733C611.734 347.867 622.267 350.8 628 344.667C630.934 341.467 631.067 341.067 630.267 321.067C626.934 233.2 578.534 150.533 499.734 97.8667C457.2 69.4667 402.533 52.1333 354.933 52C342.133 52 340.933 52.2667 338 55.3333Z" fill="white"/>
<path d="M337.467 143.467C333.734 148.267 333.867 153.467 338 157.333C340.934 160.133 343.2 160.533 356.667 161.467C401.067 164.533 440.8 183.2 472.267 215.867C501.734 246.267 517.734 282.533 521.334 326.4C522.4 339.333 523.067 342.133 525.467 344.8C531.2 350.933 541.334 347.6 543.2 338.933C544.667 332.933 541.6 305.867 537.867 290.933C530.267 260.4 516 233.067 494.134 207.733C458.8 166.533 403.467 140 353.067 140C340.8 140 340.134 140.133 337.467 143.467Z" fill="white"/>
<path d="M340.667 228.133C336.4 230.533 334.667 233.467 334.667 238C334.667 244.933 338.8 247.333 353.6 249.067C375.867 251.733 393.334 260.133 408.4 275.333C423.334 290.533 432.134 309.733 434.134 331.2C435.2 343.733 438 348 444.8 348C451.334 348 456 343.067 456 336.267C456 327.6 452.267 308.667 448.667 299.067C438.534 272.267 415.734 248 389.734 236.533C374 229.467 346.4 224.8 340.667 228.133Z" fill="white"/>
</svg>
